HIERARCHY
ROOT Hips
{
	OFFSET -0.001795 -0.223333 0.028219
	CHANNELS 6 Xposition Yposition Zposition Zrotation Yrotation Xrotation 
	JOINT LeftUpLeg
	{
		OFFSET 0.069520 -0.091406 -0.006815
		CHANNELS 3 Zrotation Yrotation Xrotation
		JOINT LeftLeg
		{
			OFFSET 0.034277 -0.375199 -0.004496
			CHANNELS 3 Zrotation Yrotation Xrotation
			JOINT LeftFoot
			{
				OFFSET -0.013596 -0.397961 -0.043693
				CHANNELS 3 Zrotation Yrotation Xrotation
				JOINT LeftToe
				{
					OFFSET 0.026358 -0.055791 0.119288
					CHANNELS 3 Zrotation Yrotation Xrotation
					End Site
					{
						OFFSET 0.000000 0.000000 0.000000
					}
				}
			}
		}
	}
	JOINT RightUpLeg
	{
		OFFSET -0.067670 -0.090522 -0.004320
		CHANNELS 3 Zrotation Yrotation Xrotation
		JOINT RightLeg
		{
			OFFSET -0.038290 -0.382569 -0.008850
			CHANNELS 3 Zrotation Yrotation Xrotation
			JOINT RightFoot
			{
				OFFSET 0.015774 -0.398415 -0.042312
				CHANNELS 3 Zrotation Yrotation Xrotation
				JOINT RightToe
				{
					OFFSET -0.025372 -0.048144 0.123348
					CHANNELS 3 Zrotation Yrotation Xrotation
					End Site
					{
						OFFSET 0.000000 0.000000 0.000000
					}
				}
			}
		}
	}
	JOINT Spine
	{
		OFFSET -0.002533 0.108963 -0.026696
		CHANNELS 3 Zrotation Yrotation Xrotation
		JOINT Spine1
		{
			OFFSET 0.005487 0.135180 0.001092
			CHANNELS 3 Zrotation Yrotation Xrotation
			JOINT Spine2
			{
				OFFSET 0.001457 0.052922 0.025425
				CHANNELS 3 Zrotation Yrotation Xrotation
				JOINT Neck
				{
					OFFSET -0.002778 0.213870 -0.042857
					CHANNELS 3 Zrotation Yrotation Xrotation
					JOINT Head
					{
						OFFSET 0.005152 0.064970 0.051349
						CHANNELS 3 Zrotation Yrotation Xrotation
						End Site
						{
							OFFSET 0.000000 0.000000 0.000000
						}
					}
				}
				JOINT LeftShoulder
				{
					OFFSET 0.078845 0.121749 -0.034090
					CHANNELS 3 Zrotation Yrotation Xrotation
					JOINT LeftArm
					{
						OFFSET 0.090977 0.030469 -0.008868
						CHANNELS 3 Zrotation Yrotation Xrotation
						JOINT LeftForeArm
						{
							OFFSET 0.259612 -0.012772 -0.027456
							CHANNELS 3 Zrotation Yrotation Xrotation
							JOINT LeftHand
							{
								OFFSET 0.249234 0.008986 -0.001171
								CHANNELS 3 Zrotation Yrotation Xrotation
								End Site
								{
									OFFSET 0.000000 0.000000 0.000000
								}
							}
						}
					}
				}
				JOINT RightShoulder
				{
					OFFSET -0.081759 0.118833 -0.038615
					CHANNELS 3 Zrotation Yrotation Xrotation
					JOINT RightArm
					{
						OFFSET -0.096012 0.032551 -0.009143
						CHANNELS 3 Zrotation Yrotation Xrotation
						JOINT RightForeArm
						{
							OFFSET -0.253742 -0.013329 -0.021401
							CHANNELS 3 Zrotation Yrotation Xrotation
							JOINT RightHand
							{
								OFFSET -0.255298 0.007772 -0.005559
								CHANNELS 3 Zrotation Yrotation Xrotation
								End Site
								{
									OFFSET 0.000000 0.000000 0.000000
								}
							}
						}
					}
				}
			}
		}
	}
}
MOTION
Frames: 13
Frame Time: 0.050000
0.000000 0.960630 0.000000 -0.654269 -5.668996 4.844740 3.137701 -0.222718 -2.790034 -1.449247 0.149326 1.419136 3.403145 9.202458 10.017316 0.000000 0.000000 0.000000 -2.421131 0.517580 -5.252313 1.539898 -0.071864 2.360987 -0.904475 -6.216927 8.513934 0.000000 0.000000 0.000000 6.043323 -0.371887 2.563770 -4.679827 1.615773 -25.783355 -0.884838 6.915916 29.413668 8.402873 -3.006072 -24.702823 0.000000 0.000000 0.000000 -12.501095 1.126798 -1.598787 -55.924663 -3.041075 -7.880741 5.618474 -19.183093 0.022290 0.000000 0.000000 0.000000 21.184539 -11.327689 -7.015096 63.294445 1.637640 -7.988087 -6.388743 21.306860 0.273317 0.000000 0.000000 0.000000 
0.000614 0.960140 -0.003644 -0.691000 -5.169722 5.351227 3.821708 -0.265119 -3.559423 -2.620003 0.299473 1.875515 3.860621 9.801904 8.616628 0.000000 0.000000 0.000000 -2.375605 0.563475 -5.803027 1.495889 -0.062677 2.562317 -1.027481 -6.397763 8.463184 0.000000 0.000000 0.000000 5.944383 -0.412074 2.918474 -4.446184 1.562833 -26.589948 -1.000929 7.615259 29.873277 8.703376 -2.863257 -25.740730 0.000000 0.000000 0.000000 -12.296989 1.653536 -1.995246 -57.407036 -3.131174 -8.108976 6.198620 -18.443687 -0.089936 0.000000 0.000000 0.000000 22.195624 -12.974483 -7.945097 64.081618 0.764683 -8.505920 -6.550630 22.640591 0.355457 0.000000 0.000000 0.000000 
0.001361 0.959159 -0.007034 -0.648492 -4.215923 5.538538 3.728103 -0.344040 -4.776979 -2.540978 0.274311 2.929070 3.812384 9.840765 8.922477 0.000000 0.000000 0.000000 -1.985421 0.599612 -6.233566 1.053880 -0.004308 2.890835 -1.367433 -6.656567 7.504577 0.000000 0.000000 0.000000 6.566769 -0.427484 2.721233 -5.156629 1.733936 -25.906447 -1.147490 7.332126 29.745199 9.337868 -3.210291 -25.617535 0.000000 0.000000 0.000000 -12.225632 1.164944 -1.813722 -58.699983 -2.245468 -8.704595 6.302763 -19.379868 -0.121494 0.000000 0.000000 0.000000 21.549778 -12.081572 -7.196854 64.950567 1.266230 -8.266981 -7.423467 21.123823 0.209165 0.000000 0.000000 0.000000 
0.001924 0.959364 -0.010208 -0.623801 -3.367202 5.719938 3.681768 -0.390900 -5.448507 -2.806400 0.302120 3.533144 3.716732 9.648722 8.395630 0.000000 0.000000 0.000000 -2.291943 0.634796 -6.718950 1.650365 -0.073749 3.110610 -1.195358 -6.224052 7.512552 0.000000 0.000000 0.000000 6.586470 -0.489142 3.282559 -5.502086 1.803108 -26.841028 -0.721235 7.720718 30.844631 8.988506 -2.795161 -26.109658 0.000000 0.000000 0.000000 -12.305255 0.821933 -1.801802 -59.846337 -2.758567 -8.768194 6.296221 -19.081592 -0.137209 0.000000 0.000000 0.000000 22.495759 -12.555240 -7.334424 64.897637 1.061217 -8.510253 -6.160874 22.041333 0.498275 0.000000 0.000000 0.000000 
0.002361 0.959380 -0.013051 -0.565750 -2.304002 5.601149 3.587609 -0.427495 -5.925277 -2.887145 0.302054 3.864949 3.663255 9.709467 8.764945 0.000000 0.000000 0.000000 -1.967454 0.634304 -6.704916 1.254007 -0.017190 3.528982 -1.681905 -7.073089 7.303193 0.000000 0.000000 0.000000 6.358866 -0.546343 3.996396 -5.111903 1.738086 -26.215765 -0.939201 7.940612 30.484539 8.853449 -2.555864 -26.090951 0.000000 0.000000 0.000000 -13.269922 0.571950 -1.994155 -59.741484 -2.137904 -9.035190 5.448530 -20.389888 -0.050997 0.000000 0.000000 0.000000 22.407936 -11.855918 -6.631069 65.075249 1.085120 -8.462157 -5.290009 21.946833 0.661113 0.000000 0.000000 0.000000 
0.002570 0.959151 -0.015578 -0.523036 -1.426638 5.600787 3.566639 -0.465902 -6.459742 -2.990963 0.305149 4.422373 3.711310 9.865450 8.776365 0.000000 0.000000 0.000000 -2.134434 0.647899 -6.944118 1.485583 -0.040974 3.933708 -1.670939 -6.897879 7.072217 0.000000 0.000000 0.000000 6.253155 -0.617459 4.776588 -5.497833 1.824127 -26.497117 -0.489598 7.819966 30.776319 8.415295 -2.212273 -26.184119 0.000000 0.000000 0.000000 -13.783733 0.451717 -2.099621 -60.242094 -2.105936 -9.161208 4.021888 -20.473921 0.181799 0.000000 0.000000 0.000000 22.574388 -11.389942 -6.228880 64.698622 0.930995 -8.545416 -3.282615 22.757579 1.034817 0.000000 0.000000 0.000000 
0.002548 0.959006 -0.018044 -0.526141 -0.577171 5.442967 3.550172 -0.476026 -6.542761 -2.961581 0.291625 4.425686 3.531905 9.676767 9.011730 0.000000 0.000000 0.000000 -1.836293 0.660836 -7.063631 1.295488 -0.007504 4.375972 -1.936219 -7.370967 7.026982 0.000000 0.000000 0.000000 6.084103 -0.669929 5.455679 -5.448609 1.830571 -26.091451 -0.657557 7.652920 30.477429 8.389691 -2.163895 -25.996017 0.000000 0.000000 0.000000 -14.360750 -0.058941 -2.021592 -60.043002 -1.580207 -9.360674 3.227402 -21.450190 0.311433 0.000000 0.000000 0.000000 23.087473 -10.436120 -5.573991 64.353606 0.988016 -8.513088 -2.088569 24.107688 1.337556 0.000000 0.000000 0.000000 
0.002328 0.958822 -0.020455 -0.564358 0.521200 5.596594 3.465539 -0.511950 -6.941908 -2.975622 0.280053 4.601094 3.476351 9.603751 8.702931 0.000000 0.000000 0.000000 -1.663882 0.703818 -7.553471 1.302149 -0.001721 4.883363 -2.060203 -7.484710 6.827863 0.000000 0.000000 0.000000 5.973195 -0.723956 6.034558 -5.527631 1.853010 -26.205958 -0.604887 7.407232 30.630663 8.375804 -2.085320 -25.987677 0.000000 0.000000 0.000000 -14.504231 -0.411731 -1.969510 -59.893211 -1.706325 -9.288168 2.727026 -21.681417 0.382226 0.000000 0.000000 0.000000 23.260466 -10.444156 -5.457800 64.331455 1.246464 -8.376644 -0.743921 25.899082 1.779691 0.000000 0.000000 0.000000 
0.002064 0.959167 -0.022821 -0.589530 1.109304 5.902071 3.524364 -0.542067 -7.363980 -2.998572 0.276941 4.587210 3.383486 9.527838 8.852112 0.000000 0.000000 0.000000 -1.508236 0.756954 -8.129409 1.359395 -0.007480 5.152113 -2.054111 -7.406830 6.767070 0.000000 0.000000 0.000000 5.907203 -0.760093 6.383581 -5.766088 1.900663 -26.359160 -0.498989 7.065097 30.676322 8.141070 -1.926303 -26.107286 0.000000 0.000000 0.000000 -14.438407 -0.594428 -1.876031 -60.160556 -2.011685 -9.194293 2.873599 -21.919629 0.360923 0.000000 0.000000 0.000000 23.113316 -10.254899 -5.313310 64.363891 1.716453 -8.121968 0.324644 27.344089 2.154973 0.000000 0.000000 0.000000 
0.001852 0.959312 -0.024878 -0.683701 1.846216 6.104803 3.785316 -0.559045 -7.684325 -3.147102 0.288981 4.715344 3.239604 9.275437 8.575899 0.000000 0.000000 0.000000 -1.262335 0.799868 -8.540347 1.337333 -0.005241 5.332653 -2.240354 -7.763230 6.844147 0.000000 0.000000 0.000000 5.884162 -0.791952 6.655376 -5.932485 1.939144 -26.401555 -0.549731 6.754158 30.744236 8.140928 -1.909161 -26.081535 0.000000 0.000000 0.000000 -14.225225 -0.783655 -1.782639 -60.215464 -2.271334 -9.096319 3.099843 -22.308117 0.316228 0.000000 0.000000 0.000000 23.300879 -10.129032 -5.199825 64.131732 1.990407 -7.978206 0.828768 28.981885 2.472534 0.000000 0.000000 0.000000 
0.001837 0.959114 -0.026206 -0.748465 2.051872 6.359695 3.769067 -0.581980 -7.995381 -3.120012 0.280772 4.895309 3.135191 9.131167 8.646505 0.000000 0.000000 0.000000 -1.140355 0.855423 -9.118979 1.298299 0.012083 5.850406 -2.184936 -7.574443 6.634346 0.000000 0.000000 0.000000 5.827075 -0.820309 6.943324 -6.026074 1.958888 -26.374468 -0.694450 6.703409 30.561155 8.116746 -1.839267 -26.338631 0.000000 0.000000 0.000000 -14.150538 -0.868246 -1.750358 -60.105410 -2.868268 -8.764959 3.476528 -22.434525 0.238354 0.000000 0.000000 0.000000 23.210666 -10.023153 -5.111912 64.100585 2.234664 -7.816047 1.189569 30.298397 2.723706 0.000000 0.000000 0.000000 
0.001983 0.958956 -0.026563 -0.665093 2.190963 6.585213 3.710645 -0.591874 -8.067987 -3.237971 0.295680 4.945416 3.177080 9.197237 8.579939 0.000000 0.000000 0.000000 -1.122156 0.894074 -9.556292 1.166368 0.038287 6.091716 -2.252006 -7.643873 6.389655 0.000000 0.000000 0.000000 5.789226 -0.833922 7.067771 -6.270802 2.003707 -26.455956 -0.776221 6.658408 30.681809 8.129580 -1.830003 -26.437211 0.000000 0.000000 0.000000 -14.207976 -0.957494 -1.719635 -59.725454 -3.563703 -8.375098 3.761235 -22.307126 0.180685 0.000000 0.000000 0.000000 23.338345 -10.081518 -5.148767 63.561485 2.644458 -7.596230 1.717323 31.461855 3.015228 0.000000 0.000000 0.000000 
0.002210 0.958688 -0.026110 -0.696053 2.239579 6.761160 3.641437 -0.592073 -7.998827 -3.140816 0.282455 4.762826 3.274524 9.392456 8.681067 0.000000 0.000000 0.000000 -1.067527 0.917912 -9.794789 0.992323 0.074212 6.387042 -2.231486 -7.536849 6.162522 0.000000 0.000000 0.000000 5.712623 -0.819858 6.956420 -6.278507 2.014646 -26.243738 -0.973476 6.655508 30.582376 8.293126 -1.915471 -26.476233 0.000000 0.000000 0.000000 -14.320129 -0.845617 -1.799685 -59.084627 -4.169780 -7.961752 4.106854 -22.191038 0.106492 0.000000 0.000000 0.000000 23.330373 -10.192622 -5.221275 63.093043 2.845792 -7.454569 1.636569 31.968789 3.057141 0.000000 0.000000 0.000000 
